<mxfile host="65bd71144e">
    <diagram id="ypxlV_cIUuVH6Fnk3u5j" name="Page-1">
        <mxGraphModel dx="1070" dy="-390" grid="1" gridSize="10" guides="1" tooltips="1" connect="1" arrows="1" fold="1" page="1" pageScale="1" pageWidth="827" pageHeight="1169" math="0" shadow="0">
            <root>
                <mxCell id="0"/>
                <mxCell id="1" parent="0"/>
                <mxCell id="2" value="" style="ellipse;fillColor=#000000;strokeColor=none;" vertex="1" parent="1">
                    <mxGeometry x="155" y="1230" width="30" height="30" as="geometry"/>
                </mxCell>
                <mxCell id="3" value="DS docker start(initialized by k8s)" style="text;align=center;verticalAlign=middle;dashed=0;fillColor=#ffffff;strokeColor=#000000;whiteSpace=wrap;" vertex="1" parent="1">
                    <mxGeometry x="100" y="1290" width="140" height="50" as="geometry"/>
                </mxCell>
                <mxCell id="4" value="" style="endArrow=classic;html=1;entryX=0.5;entryY=0;entryDx=0;entryDy=0;exitX=0.5;exitY=1;exitDx=0;exitDy=0;" edge="1" parent="1" source="2" target="3">
                    <mxGeometry width="50" height="50" relative="1" as="geometry">
                        <mxPoint x="400" y="1170" as="sourcePoint"/>
                        <mxPoint x="450" y="1120" as="targetPoint"/>
                    </mxGeometry>
                </mxCell>
                <mxCell id="5" value="Get unassigned config information from zookeeper" style="text;align=center;verticalAlign=middle;dashed=0;fillColor=#ffffff;strokeColor=#000000;whiteSpace=wrap;" vertex="1" parent="1">
                    <mxGeometry x="100" y="1400" width="140" height="40" as="geometry"/>
                </mxCell>
                <mxCell id="6" value="" style="endArrow=classic;html=1;entryX=0.5;entryY=0;entryDx=0;entryDy=0;exitX=0.5;exitY=1;exitDx=0;exitDy=0;" edge="1" parent="1" source="3" target="5">
                    <mxGeometry width="50" height="50" relative="1" as="geometry">
                        <mxPoint x="400" y="1170" as="sourcePoint"/>
                        <mxPoint x="450" y="1120" as="targetPoint"/>
                    </mxGeometry>
                </mxCell>
                <mxCell id="7" value="Generate the config file with the format which DS used" style="text;align=center;verticalAlign=middle;dashed=0;fillColor=#ffffff;strokeColor=#000000;whiteSpace=wrap;" vertex="1" parent="1">
                    <mxGeometry x="100" y="1633" width="140" height="50" as="geometry"/>
                </mxCell>
                <mxCell id="8" value="" style="endArrow=classic;html=1;entryX=0.5;entryY=0;entryDx=0;entryDy=0;exitX=0.5;exitY=1;exitDx=0;exitDy=0;" edge="1" parent="1" source="5" target="13">
                    <mxGeometry width="50" height="50" relative="1" as="geometry">
                        <mxPoint x="390" y="1620" as="sourcePoint"/>
                        <mxPoint x="440" y="1570" as="targetPoint"/>
                    </mxGeometry>
                </mxCell>
                <mxCell id="9" value="Start a new process to run DS" style="text;align=center;verticalAlign=middle;dashed=0;fillColor=#ffffff;strokeColor=#000000;whiteSpace=wrap;" vertex="1" parent="1">
                    <mxGeometry x="100" y="1876" width="140" height="40" as="geometry"/>
                </mxCell>
                <mxCell id="10" value="" style="endArrow=classic;html=1;entryX=0.5;entryY=0;entryDx=0;entryDy=0;exitX=0.5;exitY=1;exitDx=0;exitDy=0;" edge="1" parent="1" source="7" target="15">
                    <mxGeometry width="50" height="50" relative="1" as="geometry">
                        <mxPoint x="390" y="1768" as="sourcePoint"/>
                        <mxPoint x="440" y="1718" as="targetPoint"/>
                    </mxGeometry>
                </mxCell>
                <mxCell id="11" value="" style="ellipse;html=1;shape=endState;fillColor=#000000;strokeColor=#000000;" vertex="1" parent="1">
                    <mxGeometry x="155" y="2000" width="30" height="30" as="geometry"/>
                </mxCell>
                <mxCell id="12" value="" style="endArrow=classic;html=1;entryX=0.5;entryY=0;entryDx=0;entryDy=0;exitX=0.5;exitY=1;exitDx=0;exitDy=0;" edge="1" parent="1" source="9" target="11">
                    <mxGeometry width="50" height="50" relative="1" as="geometry">
                        <mxPoint x="390" y="1910" as="sourcePoint"/>
                        <mxPoint x="440" y="1860" as="targetPoint"/>
                    </mxGeometry>
                </mxCell>
                <mxCell id="13" value="Get Lock of&amp;nbsp; DS task?" style="rhombus;whiteSpace=wrap;html=1;" vertex="1" parent="1">
                    <mxGeometry x="105" y="1499" width="130" height="80" as="geometry"/>
                </mxCell>
                <mxCell id="14" value="Y" style="endArrow=classic;html=1;exitX=0.5;exitY=1;exitDx=0;exitDy=0;" edge="1" parent="1" source="13" target="7">
                    <mxGeometry width="50" height="50" relative="1" as="geometry">
                        <mxPoint x="180" y="1450" as="sourcePoint"/>
                        <mxPoint x="180" y="1510" as="targetPoint"/>
                    </mxGeometry>
                </mxCell>
                <mxCell id="15" value="Add watch under /task" style="text;align=center;verticalAlign=middle;dashed=0;fillColor=#ffffff;strokeColor=#000000;whiteSpace=wrap;" vertex="1" parent="1">
                    <mxGeometry x="100" y="1757" width="140" height="40" as="geometry"/>
                </mxCell>
                <mxCell id="16" value="" style="endArrow=classic;html=1;entryX=0.5;entryY=0;entryDx=0;entryDy=0;exitX=0.5;exitY=1;exitDx=0;exitDy=0;" edge="1" parent="1" source="15" target="9">
                    <mxGeometry width="50" height="50" relative="1" as="geometry">
                        <mxPoint x="180" y="1708" as="sourcePoint"/>
                        <mxPoint x="180" y="1790" as="targetPoint"/>
                    </mxGeometry>
                </mxCell>
                <mxCell id="17" value="N" style="endArrow=classic;html=1;exitX=1;exitY=0.5;exitDx=0;exitDy=0;entryX=1;entryY=0.5;entryDx=0;entryDy=0;edgeStyle=orthogonalEdgeStyle;elbow=vertical;" edge="1" parent="1" source="13" target="5">
                    <mxGeometry width="50" height="50" relative="1" as="geometry">
                        <mxPoint x="180" y="1450" as="sourcePoint"/>
                        <mxPoint x="300" y="1540" as="targetPoint"/>
                        <Array as="points">
                            <mxPoint x="330" y="1539"/>
                            <mxPoint x="330" y="1420"/>
                        </Array>
                    </mxGeometry>
                </mxCell>
            </root>
        </mxGraphModel>
    </diagram>
</mxfile>